Coordinates
version=1
nRows=18
nColumns=63
inDegrees=yes

Units are S.I. units (second, meters, Newtons, ...)
If the header above contains a line with 'inDegrees', this indicates whether rotational values are in degrees (yes) or radians (no).

endheader
time	pelvis_tilt	pelvis_list	pelvis_rotation	pelvis_tx	pelvis_ty	pelvis_tz	hip_flexion_r	hip_adduction_r	hip_rotation_r	knee_angle_r	knee_angle_r_beta	ankle_angle_r	subtalar_angle_r	mtp_angle_r	hip_flexion_l	hip_adduction_l	hip_rotation_l	knee_angle_l	knee_angle_l_beta	ankle_angle_l	subtalar_angle_l	mtp_angle_l	L5_S1_Flex_Ext	L5_S1_Lat_Bending	L5_S1_axial_rotation	L4_L5_Flex_Ext	L4_L5_Lat_Bending	L4_L5_axial_rotation	L3_L4_Flex_Ext	L3_L4_Lat_Bending	L3_L4_axial_rotation	L2_L3_Flex_Ext	L2_L3_Lat_Bending	L2_L3_axial_rotation	L1_L2_Flex_Ext	L1_L2_Lat_Bending	L1_L2_axial_rotation	L1_T12_Flex_Ext	L1_T12_Lat_Bending	L1_T12_axial_rotation	Abs_r3	Abs_r2	Abs_r1	Abs_t1	Abs_t2	neck_flexion	neck_bending	neck_rotation	arm_flex_r	arm_add_r	arm_rot_r	elbow_flex_r	pro_sup_r	wrist_flex_r	wrist_dev_r	arm_flex_l	arm_add_l	arm_rot_l	elbow_flex_l	pro_sup_l	wrist_flex_l	wrist_dev_l
1.135593	4.280116	-4.301716	105.541492	0.007614	1.020774	0.655264	-1.197226	2.214972	5.791664	0.712161	0.012430	23.577628	-15.409258	0.000000	1.910618	-1.780973	20.837388	0.698338	0.012188	25.947854	-10.855374	0.000000	0.186914	0.114535	-1.865438	0.347118	0.152331	-1.982028	0.307081	0.278480	-1.982028	0.213624	0.278480	-1.632258	0.173568	0.233559	-1.515668	0.106803	0.177414	-1.399078	1.335109	1.295641	-10.375006	0.000000	0.000000	27.396176	9.557707	4.620141	11.917686	-3.163543	62.789000	27.628296	24.764064	-0.180616	-0.968751	14.821807	-6.795206	64.686532	35.448309	61.957775	-1.207785	-8.093802
1.152542	4.213832	-4.279437	105.352478	0.007803	1.020867	0.654851	-1.241357	2.160468	6.043657	0.726508	0.012680	23.600138	-15.403026	0.000000	1.830244	-1.733964	20.478055	0.668927	0.011675	26.054838	-10.689889	0.000000	0.193515	0.107643	-1.834643	0.359376	0.143166	-1.949308	0.317925	0.261724	-1.949308	0.221168	0.261724	-1.605312	0.179698	0.219506	-1.490647	0.110574	0.166739	-1.375982	1.382257	1.217682	-10.203731	0.000000	0.000000	27.441133	9.735310	4.505195	11.908264	-3.117778	62.975181	27.558691	25.442814	-0.317184	-0.563896	14.756365	-6.808572	64.818822	35.431353	61.622093	-1.070520	-7.957175
1.169492	4.153001	-4.255382	105.189596	0.007962	1.020967	0.654484	-1.281760	2.108866	6.254012	0.743807	0.012982	23.619987	-15.408578	0.000000	1.758847	-1.691242	20.099294	0.647094	0.011294	26.179391	-10.463918	0.000000	0.199470	0.100835	-1.810012	0.370436	0.134111	-1.923138	0.327710	0.245171	-1.923138	0.227975	0.245171	-1.583761	0.185228	0.205623	-1.470635	0.113977	0.156194	-1.357509	1.424797	1.140669	-10.066746	0.000000	0.000000	27.464493	9.978221	4.469200	11.954089	-3.077572	63.317495	27.481354	26.058912	-0.499455	-0.191840	14.692277	-6.826619	64.945849	35.413276	61.298425	-0.893371	-7.764698
1.186441	4.113806	-4.231820	105.056371	0.008077	1.021059	0.654159	-1.314607	2.075461	6.417390	0.760470	0.013273	23.629281	-15.420573	0.000000	1.697930	-1.669318	19.813507	0.628001	0.010961	26.282264	-10.315110	0.000000	0.205515	0.096114	-1.788421	0.381662	0.127832	-1.900197	0.337641	0.233692	-1.900197	0.234883	0.233692	-1.564868	0.190841	0.195996	-1.453092	0.117431	0.148881	-1.341316	1.467974	1.087263	-9.946661	0.000000	0.000000	27.475524	10.208442	4.457428	12.003352	-3.053180	63.616525	27.423319	26.616337	-0.676808	0.183613	14.636301	-6.834637	65.090441	35.384872	60.964032	-0.695386	-7.558995
1.203390	4.088741	-4.203947	104.937776	0.008164	1.021158	0.653878	-1.344609	2.053847	6.539005	0.780003	0.013614	23.631382	-15.431284	0.000000	1.638255	-1.661114	19.631439	0.614905	0.010732	26.350269	-10.267339	0.000000	0.210378	0.093168	-1.768718	0.390692	0.123914	-1.879263	0.345629	0.226530	-1.879263	0.240441	0.226530	-1.547628	0.195357	0.189989	-1.437083	0.120210	0.144318	-1.326538	1.502706	1.053941	-9.837077	0.000000	0.000000	27.471616	10.423644	4.514410	12.042318	-3.034597	63.788110	27.368248	27.501897	-0.859183	0.523795	14.591717	-6.836981	65.245166	35.350275	60.595630	-0.467369	-7.341413
1.220339	4.085529	-4.174416	104.851648	0.008199	1.021253	0.653627	-1.372314	2.051983	6.608501	0.796312	0.013898	23.625534	-15.431286	0.000000	1.584393	-1.675137	19.577712	0.605833	0.010574	26.383376	-10.315866	0.000000	0.215480	0.092617	-1.753892	0.400169	0.123181	-1.863510	0.354013	0.225190	-1.863510	0.246272	0.225190	-1.534655	0.200095	0.188865	-1.425037	0.123125	0.143464	-1.315419	1.539155	1.047705	-9.754621	0.000000	0.000000	27.459535	10.582715	4.600718	12.070445	-3.029703	63.941999	27.338419	28.118881	-0.999736	0.857358	14.548053	-6.835297	65.391383	35.318305	60.229470	-0.231330	-7.125730
1.237288	4.099492	-4.141872	104.774069	0.008211	1.021357	0.653383	-1.399904	2.065856	6.664170	0.810139	0.014140	23.607860	-15.436297	0.000000	1.529026	-1.708516	19.583761	0.598118	0.010439	26.398213	-10.393885	0.000000	0.220836	0.094004	-1.739416	0.410114	0.125026	-1.848130	0.362811	0.228562	-1.848130	0.252393	0.228562	-1.521989	0.205068	0.191693	-1.413276	0.126186	0.145613	-1.304562	1.577409	1.063395	-9.674112	0.000000	0.000000	27.448733	10.690387	4.716880	12.071400	-3.036584	64.033662	27.337572	28.509699	-1.102917	1.194458	14.501826	-6.829178	65.522324	35.290570	59.874316	0.002781	-6.907305
1.254237	4.129234	-4.106538	104.707556	0.008191	1.021465	0.653133	-1.430292	2.094321	6.696335	0.818558	0.014287	23.588816	-15.425054	0.000000	1.472314	-1.758502	19.697006	0.590046	0.010298	26.386918	-10.578516	0.000000	0.226989	0.097387	-1.727660	0.421541	0.129525	-1.835639	0.372920	0.236787	-1.835639	0.259425	0.236787	-1.511702	0.210782	0.198592	-1.403724	0.129701	0.150853	-1.295745	1.621358	1.101662	-9.608726	0.000000	0.000000	27.444279	10.757163	4.875697	12.049196	-3.053114	64.095343	27.353700	28.684340	-1.165780	1.505898	14.451885	-6.819947	65.647531	35.264503	59.524724	0.223187	-6.696701
1.271186	4.180047	-4.061393	104.636287	0.008144	1.021594	0.652879	-1.467505	2.143902	6.712670	0.824044	0.014382	23.569735	-15.378185	0.000000	1.407679	-1.831986	19.894695	0.581826	0.010155	26.347251	-10.864444	0.000000	0.232839	0.103639	-1.717846	0.432405	0.137840	-1.825212	0.382531	0.251988	-1.825212	0.266112	0.251988	-1.503115	0.216214	0.211341	-1.395750	0.133044	0.160537	-1.288385	1.663145	1.172388	-9.554146	0.000000	0.000000	27.448369	10.841176	5.092764	12.033618	-3.089808	64.205642	27.382500	28.634689	-1.185544	1.824114	14.384306	-6.800077	65.715367	35.238952	59.183012	0.439557	-6.465064
1.288136	4.235379	-4.021373	104.573116	0.008076	1.021725	0.652609	-1.503085	2.196837	6.736465	0.823404	0.014371	23.546797	-15.349220	0.000000	1.349693	-1.909320	20.094335	0.574641	0.010029	26.309708	-11.122656	0.000000	0.240715	0.110275	-1.708787	0.447032	0.146666	-1.815586	0.395471	0.268123	-1.815586	0.275113	0.268123	-1.495189	0.223528	0.224873	-1.388389	0.137545	0.170816	-1.281590	1.719403	1.247457	-9.503760	0.000000	0.000000	27.464733	10.893217	5.317573	11.990358	-3.129525	64.258424	27.414753	28.439683	-1.180902	2.060082	14.313693	-6.782657	65.800085	35.216327	58.900773	0.609911	-6.267175
1.305085	4.293187	-3.984671	104.514068	0.007998	1.021858	0.652334	-1.538763	2.252870	6.788176	0.815925	0.014241	23.518295	-15.364961	0.000000	1.295218	-1.987761	20.421524	0.565400	0.009868	26.227279	-11.554997	0.000000	0.249700	0.117288	-1.703029	0.463719	0.155993	-1.809468	0.410233	0.285173	-1.809468	0.285383	0.285173	-1.490150	0.231872	0.239173	-1.383711	0.142679	0.181679	-1.277272	1.783585	1.326781	-9.471735	0.000000	0.000000	27.491173	10.949417	5.574501	11.950295	-3.173314	64.349484	27.435231	28.138317	-1.149201	2.179960	14.229993	-6.775221	65.863868	35.213470	58.643308	0.732834	-6.076624
1.322034	4.354898	-3.955681	104.479147	0.007881	1.021987	0.652071	-1.569130	2.313521	6.793920	0.802591	0.014008	23.500582	-15.354801	0.000000	1.254587	-2.066813	20.775006	0.558053	0.009740	26.144146	-11.992166	0.000000	0.260250	0.124431	-1.702126	0.483310	0.165493	-1.808509	0.427565	0.302541	-1.808509	0.297440	0.302541	-1.489360	0.241668	0.253739	-1.382978	0.148707	0.192743	-1.276595	1.858940	1.407586	-9.466716	0.000000	0.000000	27.528252	10.968954	5.779910	11.900582	-3.221813	64.427129	27.455382	27.795216	-1.116160	2.170484	14.149557	-6.763206	65.943584	35.191542	58.487176	0.803451	-5.960966
1.338983	4.412633	-3.931674	104.455117	0.007773	1.022116	0.651810	-1.598615	2.372822	6.795588	0.783379	0.013673	23.493523	-15.347207	0.000000	1.221101	-2.141673	21.049971	0.551537	0.009626	26.097575	-12.303753	0.000000	0.271198	0.130354	-1.701609	0.503642	0.173371	-1.807959	0.445551	0.316943	-1.807959	0.309952	0.316943	-1.488908	0.251834	0.265818	-1.382557	0.154962	0.201919	-1.276207	1.937139	1.474593	-9.463837	0.000000	0.000000	27.571149	10.941140	5.899973	11.837228	-3.266714	64.449947	27.472227	27.529924	-1.083380	2.048577	14.078864	-6.752563	66.044887	35.154100	58.442802	0.813881	-5.923113
1.355932	4.465311	-3.906274	104.442479	0.007668	1.022250	0.651587	-1.631677	2.430857	6.790656	0.759190	0.013250	23.485783	-15.339661	0.000000	1.190126	-2.211547	21.297014	0.544928	0.009511	26.066644	-12.560592	0.000000	0.280087	0.135110	-1.702697	0.520150	0.179696	-1.809116	0.460155	0.328506	-1.809116	0.320112	0.328506	-1.489860	0.260089	0.275516	-1.383441	0.160042	0.209285	-1.277023	2.000634	1.528390	-9.469890	0.000000	0.000000	27.619168	10.860613	5.911777	11.767270	-3.307403	64.417611	27.500827	27.236461	-1.035264	1.861982	14.021181	-6.744300	66.143233	35.104154	58.496040	0.775048	-5.976655
1.372881	4.513748	-3.900111	104.451756	0.007568	1.022359	0.651433	-1.645008	2.483343	6.737310	0.730863	0.012756	23.480381	-15.293802	0.000000	1.188441	-2.269629	21.544255	0.539946	0.009424	26.033279	-12.811351	0.000000	0.289776	0.138414	-1.707152	0.538143	0.184091	-1.813849	0.476073	0.336540	-1.813849	0.331185	0.336540	-1.493758	0.269086	0.282254	-1.387061	0.165578	0.214404	-1.280364	2.069841	1.565769	-9.494665	0.000000	0.000000	27.672992	10.712904	5.837685	11.711149	-3.339707	64.429539	27.531435	26.766503	-0.973516	1.646510	13.977717	-6.744561	66.247446	35.055317	58.605842	0.697994	-6.081816
1.389831	4.556212	-3.896113	104.475490	0.007479	1.022460	0.651356	-1.656136	2.530816	6.682073	0.698497	0.012191	23.462207	-15.252835	0.000000	1.197869	-2.319732	21.703682	0.532347	0.009291	26.039257	-12.932593	0.000000	0.297090	0.140402	-1.712196	0.551726	0.186735	-1.819209	0.488090	0.341374	-1.819209	0.339545	0.341374	-1.498172	0.275878	0.286308	-1.391160	0.169757	0.217483	-1.284147	2.122086	1.588256	-9.522723	0.000000	0.000000	27.726466	10.485646	5.652909	11.648400	-3.359520	64.354464	27.576035	26.247782	-0.908330	1.453533	13.947176	-6.746382	66.333838	35.003460	58.759269	0.588966	-6.236121
1.406780	4.591526	-3.914366	104.510899	0.007409	1.022524	0.651384	-1.643535	2.566784	6.703575	0.659664	0.011513	23.388288	-15.344677	0.000000	1.241999	-2.353561	21.835533	0.523983	0.009145	26.052770	-13.032744	0.000000	0.305053	0.140282	-1.716942	0.566514	0.186575	-1.824251	0.501172	0.341081	-1.824251	0.348645	0.341081	-1.502324	0.283272	0.286063	-1.395015	0.174307	0.217296	-1.287706	2.178965	1.586895	-9.549116	0.000000	0.000000	27.779195	10.198150	5.367579	11.602025	-3.372897	64.314204	27.631096	25.598550	-0.860211	1.283905	13.928322	-6.758429	66.407744	34.968649	58.937655	0.461019	-6.376809
1.423729	4.617110	-3.963337	104.578839	0.007333	1.022531	0.651564	-1.595804	2.584705	6.731067	0.619851	0.010818	23.288764	-15.494105	0.000000	1.335459	-2.363915	21.984948	0.517545	0.009033	26.065247	-13.146460	0.000000	0.314106	0.138260	-1.727046	0.583327	0.183885	-1.834986	0.516045	0.336164	-1.834986	0.358992	0.336164	-1.511165	0.291679	0.281939	-1.403225	0.179480	0.214164	-1.295284	2.243631	1.564019	-9.605311	0.000000	0.000000	27.825037	9.938596	5.125665	11.582631	-3.374179	64.308189	27.683822	24.774338	-0.801255	1.176301	13.932042	-6.779001	66.485326	34.926341	59.203585	0.367804	-6.545098
